<?xml version="1.0" encoding="UTF-8" standalone="no"?>
<svg width="200px" height="30px" viewBox="0 0 200 30" version="1.1" xmlns="http://www.w3.org/2000/svg" xmlns:xlink="http://www.w3.org/1999/xlink" xmlns:sketch="http://www.bohemiancoding.com/sketch/ns">
    <!-- Generator: Sketch 3.4.3 (16044) - http://www.bohemiancoding.com/sketch -->
    <title>codethemes</title>
    <desc>Created with Sketch.</desc>
    <defs></defs>
    <g id="Page-1" stroke="none" stroke-width="1" fill="none" fill-rule="evenodd" sketch:type="MSPage">
        <g id="codethemes-branding" sketch:type="MSArtboardGroup" transform="translate(-40.000000, -154.000000)">
            <g id="codethemes" sketch:type="MSLayerGroup" transform="translate(39.000000, 154.000000)">
                <g id="codetheme-text" transform="translate(40.836735, 4.615385)" sketch:type="MSShapeGroup">
                    <path d="M66.6758293,14.5388484 C66.6758293,19.7995818 70.2964453,20.4221538 72.1207866,20.4221538 C72.6821224,20.4221538 73.0750575,20.3598966 73.0750575,20.3598966 L73.0750575,17.682837 C73.0750575,17.682837 72.8224564,17.7450942 72.4295213,17.7450942 C71.3910501,17.7450942 69.398308,17.3404224 69.398308,14.1964338 L69.398308,7.19249876 L72.8224564,7.19249876 L72.8224564,4.76446794 L69.398308,4.76446794 L69.398308,0.219692308 L66.7600297,0.219692308 .7600297,4.76446794 L64.8234212,4.76446794 L64.8234212,7.19249876 L66.6758293,7.19249876 L66.6758293,14.5388484 Z M76.1343377,20.3076923 L78.8568163,20.3076923 L78.8568163,13.5258462 C78.8568163,12.8390769 78.9129499,12.1809231 79.0813506,11.6086154 C79.6707532,9.51969231 81.438961,8.03169231 83.5720371,8.03169231 C85.8454471,8.03169231 86.266449,9.63415385 86.266449,11.6658462 L86.266449,20.3076923 L88.9889276,20.3076923 L88.9889276,11.0363077 C88.9889276,7.34492308 87.4452542,5.48492308 84.1053061,5.48492308 C81.2705603,5.48492308 79.4742857,7.31630769 78.8568163,8.71846154 L78.8006827,8.71846154 C78.8006827,8.71846154 78.8568163,8.20338462 78.8568163,7.51661538 L78.8568163,0.105230769 L76.1343377,0.105230769 L76.1343377,20.3076923 Z M92.0762746,13.068 C92.0762746,17.3603077 95.1355547,20.6510769 99.5981744,20.6510769 C102.994256,20.6510769 105.099265,18.5907692 105.099265,18.5907692 L103.976594,16.5590769 C103.976594,16.5590769 102.208386,18.2473846 99.7665751,18.2473846 C97.240564,18.2473846 95.0232876,16.6449231 94.8829536,13.4686154 L105.239599,13.4686154 C105.239599,13.4686154 105.3238,12.6387692 105.3238,12.2667692 C105.3238,8.51815385 103.190724,5.48492308 99.1771725,5.48492308 C95.1355547,5.48492308 92.0762746,8.46092308 92.0762746,13.068 L92.0762746,13.068 Z M94.967154,11.3796923 C95.3600891,9.00461538 97.0440965,7.68830769 99.121039,7.68830769 C100.94538,7.68830769 102.460987,8.89015385 102.545187,11.3796923 L94.967154,11.3796923 Z M108.635681,20.3076923 L111.35816,20.3076923 L111.35816,13.6975385 C111.35816,13.0393846 111.386226,12.3812308 111.52656,11.8089231 C112.059829,9.74861538 113.519302,8.00307692 115.596245,8.00307692 C117.785455,8.00307692 118.066122,9.74861538 118.066122,11.6372308 L118.066122,20.3076923 L120.788601,20.3076923 L120.788601,13.6975385 C120.788601,12.9535385 120.844735,12.2953846 120.985069,11.6944615 C121.490271,9.72 122.977811,8.00307692 124.970553,8.00307692 C127.103629,8.00307692 127.496564,9.60553846 127.496564,11.6372308 L127.496564,20.3076923 L130.219043,20.3076923 L130.219043,11.0363077 C130.219043,7.34492308 128.731503,5.48492308 125.531889,5.48492308 C123.230412,5.48492308 121.265737,7.03015385 120.479866,8.77569231 L120.423733,8.77569231 C119.946597,6.60092308 118.543258,5.48492308 116.157581,5.48492308 C113.940304,5.48492308 111.947562,7.116 111.273959,8.80430769 L111.217826,8.80430769 C111.217826,8.80430769 111.273959,8.31784615 111.273959,7.74553846 L111.273959,5.82830769 L108.635681,5.82830769 L108.635681,20.3076923 Z M133.30639,13.068 C133.30639,17.3603077 136.36567,20.6510769 140.828289,20.6510769 C144.224371,20.6510769 146.32938,18.5907692 146.32938,18.5907692 L145.206709,16.5590769 C145.206709,16.5590769 143.438501,18.2473846 140.99669,18.2473846 C138.470679,18.2473846 136.253403,16.6449231 136.113069,13.4686154 L146.469714,13.4686154 C146.469714,13.4686154 146.553915,12.6387692 146.553915,12.2667692 C146.553915,8.51815385 144.420839,5.48492308 140.407288,5.48492308 C136.36567,5.48492308 133.30639,8.46092308 133.30639,13.068 L133.30639,13.068 Z M136.197269,11.3796923 C136.590204,9.00461538 138.274212,7.68830769 140.351154,7.68830769 C142.175495,7.68830769 143.691102,8.89015385 143.775302,11.3796923 L136.197269,11.3796923 Z M148.715058,18.5335385 C148.715058,18.5335385 150.623599,20.6510769 154.103881,20.6510769 C157.219295,20.6510769 159.240104,18.8483077 159.240104,16.4446154 C159.240104,11.6944615 151.942738,12.2667692 151.942738,9.66276923 C151.942738,8.40369231 153.093477,7.88861538 154.272282,7.88861538 C156.517625,7.88861538 157.780631,9.17630769 157.780631,9.17630769 L158.875236,7.08738462 C158.875236,7.08738462 157.415763,5.48492308 154.300349,5.48492308 C151.465603,5.48492308 149.164126,6.97292308 149.164126,9.60553846 C149.164126,14.3270769 156.461492,13.7833846 156.461492,16.4446154 C156.461492,17.6178462 155.282686,18.2473846 154.103881,18.2473846 C151.634004,18.2473846 150.034197,16.5590769 150.034197,16.5590769 L148.715058,18.5335385 Z" id="themes" fill="#FFFFFF"></path>
                    <path d="M0.21729128,13.068 C0.21729128,17.4175385 3.3607718,20.6510769 7.82339147,20.6510769 C11.5282078,20.6510769 13.4928831,18.3332308 13.4928831,18.3332308 L12.3982783,16.3015385 C12.3982783,16.3015385 10.6581373,18.2473846 8.019859,18.2473846 C5.07284601,18.2473846 2.99590353,15.9867692 2.99590353,13.0393846 C2.99590353,10.0633846 5.07284601,7.88861538 7.93565863,7.88861538 C10.3494026,7.88861538 11.8650093,9.54830769 11.8650093,9.54830769 L13.1560816,7.60246154 C13.1560816,7.60246154 11.3878738,5.48492308 7.82339147,5.48492308 C3.3607718,5.48492308 0.21729128,8.77569231 0.21729128,13.068 L0.21729128,13.068 Z M15.5417588,13.0393846 C15.5417588,17.4461538 18.9659072,20.6510769 23.2039926,20.6510769 C27.4420779,20.6510769 30.8662263,17.4461538 30.8662263,13.0393846 C30.8662263,8.66123077 27.4420779,5.48492308 23.2039926,5.48492308 C18.9659072,5.48492308 15.5417588,8.66123077 15.5417588,13.0393846 L15.5417588,13.0393846 Z M18.3203711,13.0393846 C18.3203711,10.0347692 20.5376475,7.88861538 23.2039926,7.88861538 C25.8984045,7.88861538 28.0876141,10.0347692 28.0876141,13.0393846 C28.0876141,16.0726154 25.8984045,18.2473846 23.2039926,18.2473846 C20.5376475,18.2473846 18.3203711,16.0726154 18.3203711,13.0393846 L18.3203711,13.0393846 Z M33.1677032,13.068 C33.1677032,17.5606154 35.5814471,20.6510769 39.4265974,20.6510769 C42.9349462,20.6510769 44.0856846,17.9612308 44.0856846,17.9612308 L44.1418182,17.9612308 C44.1418182,17.9612308 44.1137514,18.3618462 44.1137514,18.9341538 L44.1137514,20.3076923 L46.6958961,20.3076923 L46.6958961,0.105230769 L43.9734174,0.105230769 L43.9734174,6.80123077 C43.9734174,7.34492308 44.029551,7.77415385 44.029551,7.77415385 L43.9734174,7.77415385 C43.9734174,7.77415385 42.8788126,5.48492308 39.5949981,5.48492308 C35.8340482,5.48492308 33.1677032,8.46092308 33.1677032,13.068 L33.1677032,13.068 Z M35.9463154,13.068 C35.9463154,9.77723077 37.7987236,7.88861538 40.0440668,7.88861538 C42.7384787,7.88861538 44.0576178,10.464 44.0576178,13.0393846 C44.0576178,16.7307692 42.0648757,18.2473846 39.9598664,18.2473846 C37.602256,18.2473846 35.9463154,16.2156923 35.9463154,13.068 L35.9463154,13.068 Z M49.9797106,13.068 C49.9797106,17.3603077 53.0389907,20.6510769 57.5016104,20.6510769 C60.897692,20.6510769 63.0027013,18.5907692 63.0027013,18.5907692 L61.8800297,16.5590769 C61.8800297,16.5590769 60.1118219,18.2473846 57.6700111,18.2473846 C55.144,18.2473846 52.9267236,16.6449231 52.7863896,13.4686154 L63.1430353,13.4686154 C63.1430353,13.4686154 63.2272356,12.6387692 63.2272356,12.2667692 C63.2272356,8.51815385 61.0941596,5.48492308 57.0806085,5.48492308 C53.0389907,5.48492308 49.9797106,8.46092308 49.9797106,13.068 L49.9797106,13.068 Z M52.87059,11.3796923 C53.263525,9.00461538 54.9475325,7.68830769 57.024475,7.68830769 C58.8488163,7.68830769 60.364423,8.89015385 60.4486234,11.3796923 L52.87059,11.3796923 Z" id="code" fill="#3FC1E2"></path>
                </g>
                <g id="codetheme-symbol-final" transform="translate(16.391466, 15.000000) rotate(90.000000) translate(-16.391466, -15.000000) translate(1.905380, -0.461538)" sketch:type="MSShapeGroup">
                    <g id="c" transform="translate(0.000000, 0.075309)">
                        <path d="M10.0495835,0 L19.3704401,0 L4.38527278,21.2975008 L0.365439399,13.5505631 L10.0495835,0 Z" id="Rectangle-1" fill="#0C96B1"></path>
                        <path d="M5.37791257,6.55776037 L10.4246514,12.5854848 L9.4907198,13.9650466 L5.37791257,6.55776037 Z" id="Rectangle-9" fill-opacity="0.295233243" fill="#1F1B1B"></path>
                        <path d="M0.192348266,13.6341086 L5.30849985,6.5783193 L18.6374093,30.7795501 L9.39799812,30.686688 L0.192348266,13.6341086 Z" id="Rectangle-1" fill="#2FD1F0"></path>
                    </g>
                    <g id="c" transform="translate(19.143083, 15.415107) scale(-1, -1) translate(-19.143083, -15.415107) translate(9.334323, -0.000000)">
                        <path d="M9.8572352,-1.06684508e-14 L19.5413793,-1.06684508e-14 L4.56691649,21.3199769 L0.445556688,13.8516256 L9.8572352,-1.06684508e-14 Z" id="Rectangle-1" fill="#0C96B1"></path>
                        <path d="M5.65037813,6.28409728 L10.584886,12.6832701 L9.76318536,13.8771077 L5.65037813,6.28409728 Z" id="Rectangle-9" fill-opacity="0.295233243" fill="#1F1B1B"></path>
                        <path d="M0.363287407,13.8135178 L5.57026084,6.29341812 L18.8991703,30.7732352 L9.65975911,30.7732352 L0.363287407,13.8135178 Z" id="Rectangle-1" fill="#2FD1F0"></path>
                    </g>
                </g>
            </g>
        </g>
    </g>
</svg>